<svg version="1.1" xmlns="http://www.w3.org/2000/svg" viewBox="0 0 512.0935736653946 403.87662891685375" width="512.0935736653946" height="403.87662891685375">
  <!-- svg-source:excalidraw -->
  
  <defs>
    <style class="style-fonts">
      @font-face {
        font-family: "Virgil";
        src: url("https://excalidraw.com/Virgil.woff2");
      }
      @font-face {
        font-family: "Cascadia";
        src: url("https://excalidraw.com/Cascadia.woff2");
      }
    </style>
  </defs>
  <rect x="0" y="0" width="512.0935736653946" height="403.87662891685375" fill="#ffffff"></rect><g transform="translate(39.01776710968079 76.02950117844945) rotate(0 73.5 12.500000000000007)"><text x="0" y="18" font-family="Virgil, Segoe UI Emoji" font-size="20px" fill="#000000" text-anchor="start" style="white-space: pre;" direction="ltr">Component.ctor</text></g><g transform="translate(68.55589418647241 121.10784257545916) rotate(0 42.5 12.5)"><text x="0" y="18" font-family="Virgil, Segoe UI Emoji" font-size="20px" fill="#000000" text-anchor="start" style="white-space: pre;" direction="ltr">OnAwake</text></g><g transform="translate(90.31964467881335 205.19599202330673) rotate(0 19 12.5)"><text x="0" y="18" font-family="Virgil, Segoe UI Emoji" font-size="20px" fill="#000000" text-anchor="start" style="white-space: pre;" direction="ltr">Init</text></g><g transform="translate(89.6280193991679 243.22915876209575) rotate(0 21 12.5)"><text x="0" y="18" font-family="Virgil, Segoe UI Emoji" font-size="20px" fill="#000000" text-anchor="start" style="white-space: pre;" direction="ltr">Tick</text></g><g transform="translate(68.04022468040648 162.3723141329467) rotate(0 44 12.5)"><text x="0" y="18" font-family="Virgil, Segoe UI Emoji" font-size="20px" fill="#000000" text-anchor="start" style="white-space: pre;" direction="ltr">OnEnable</text></g><g transform="translate(66.99668785360018 284.41836888428065) rotate(0 48 12.5)"><text x="0" y="18" font-family="Virgil, Segoe UI Emoji" font-size="20px" fill="#000000" text-anchor="start" style="white-space: pre;" direction="ltr">OnDisable</text></g><g transform="translate(64.21798892034121 321.33273736095987) rotate(0 52 12.5)"><text x="0" y="18" font-family="Virgil, Segoe UI Emoji" font-size="20px" fill="#000000" text-anchor="start" style="white-space: pre;" direction="ltr">OnDestroy</text></g><g transform="translate(65.99078174444458 360.0575293793946) rotate(0 49.5 12.5)"><text x="0" y="18" font-family="Virgil, Segoe UI Emoji" font-size="20px" fill="#000000" text-anchor="start" style="white-space: pre;" direction="ltr">OnDispose</text></g><g stroke-linecap="round" transform="translate(52.81434526076737 194.73290167581152) rotate(0 58.20669772475571 41.66063136644948)"><path d="M1.94 -0.4 C34.62 0.08, 64.67 -1.67, 117.91 1.23 M0.14 0.22 C30.91 1.15, 60.05 0.58, 116.24 -0.31 M115.78 -0.15 C118.75 22.85, 115.55 44.65, 114.66 81.6 M117.21 -0.64 C116.47 30.27, 117.23 60.81, 116.39 83.52 M117.08 82.39 C90.01 81.73, 65.68 81.9, -1.25 83.68 M115.72 82.84 C91.02 84.25, 65.37 82.46, -0.18 83.16 M-1.12 84.06 C2.22 55.85, 2.4 32.68, -1.77 0.84 M0.06 83.73 C-0.26 60.71, -0.58 35.87, -0.07 0.34" stroke="#000000" stroke-width="1" fill="none"></path></g><g stroke-linecap="round" transform="translate(35.67734796109289 154.54959766278222) rotate(0 76.82102237785011 80.07114255537455)"><path d="M-0.34 0.77 C56.36 -0.14, 107.93 -0.45, 155.07 0.88 M-0.95 0.99 C41.26 0.07, 80.1 -0.26, 154.62 0.25 M153.69 0.82 C153.84 53.47, 152.64 102.97, 152.18 158.88 M153.48 0.11 C153.27 60.22, 151.64 119.86, 154.58 160.58 M154.18 160.2 C114.33 159.16, 72.94 160.07, 0.47 160.88 M154.23 160.13 C93.15 160.5, 31.52 159.23, 0.91 159.53 M0.66 161.38 C1.81 100.37, 0.62 40.73, -1.52 -1.98 M0.07 159.19 C-1.19 96.89, 0.01 34.3, -0.94 0.36" stroke="#000000" stroke-width="1" fill="none"></path></g><g stroke-linecap="round" transform="translate(23.85872913373123 110.82070800154443) rotate(0 89.8215030879478 121.43630845114004)"><path d="M-1.37 -0.14 C71.35 0.65, 143.34 -0.28, 180.97 0.04 M-0.34 -0.07 C58.72 -1.72, 116.4 -1.24, 178.8 -0.8 M178.89 0.93 C178.97 95.99, 179.31 189.8, 179.55 242.71 M179.9 -0.62 C177.71 53.6, 177.09 108.55, 180.07 242.96 M181.5 241.71 C143.36 241.45, 106.33 244.71, -0.72 241.95 M180.56 242.12 C115.32 241.44, 52.37 241.42, -0.31 242.54 M-0.72 241.85 C-0.39 169.62, 0.04 94.42, -0.87 1.21 M-0.61 242.26 C0.98 181.39, 1.31 121.25, -0.3 -0.16" stroke="#000000" stroke-width="1" fill="none"></path></g><g stroke-linecap="round" transform="translate(11.449179365000418 68.27368022304282) rotate(0 102.23105285667748 162.80147434690548)"><path d="M0.56 0.29 C51.88 -0.13, 101.16 -0.37, 205.54 -0.81 M0.54 0.17 C69.89 -0.29, 139.65 -0.55, 204.81 0.64 M205.2 0.63 C203.79 120.63, 202.01 244.16, 204.86 326.52 M204.77 -0.64 C206.73 120.74, 206.05 240.43, 204.6 325.86 M203.9 326.78 C161.18 322.39, 115.66 323.71, 1.07 327.22 M204.29 326.1 C141.14 325.57, 76.4 324.8, 0.3 325.2 M0.66 325.81 C-0.32 249.75, -1.15 171.8, -1.17 -0.95 M0.16 324.98 C-0.88 236.94, -1.8 148.69, 0.16 0.37" stroke="#000000" stroke-width="1" fill="none"></path></g><g transform="translate(10 10) rotate(0 99 25)"><text x="0" y="18" font-family="Virgil, Segoe UI Emoji" font-size="20px" fill="#000000" text-anchor="start" style="white-space: pre;" direction="ltr">Последовательность</text><text x="0" y="43" font-family="Virgil, Segoe UI Emoji" font-size="20px" fill="#000000" text-anchor="start" style="white-space: pre;" direction="ltr">вызовов:</text></g><g transform="translate(245.17654967620456 117.80266958425455) rotate(0 102.5 12.5)"><text x="0" y="18" font-family="Virgil, Segoe UI Emoji" font-size="20px" fill="#000000" text-anchor="start" style="white-space: pre;" direction="ltr">создании gameObject</text></g><g transform="translate(245.90580567350253 157.911749435604) rotate(0 107 12.5)"><text x="0" y="18" font-family="Virgil, Segoe UI Emoji" font-size="20px" fill="#000000" text-anchor="start" style="white-space: pre;" direction="ltr">включении компонента</text></g><g transform="translate(245.17654967620592 71.13028575722976) rotate(0 101 12.5)"><text x="0" y="18" font-family="Virgil, Segoe UI Emoji" font-size="20px" fill="#000000" text-anchor="start" style="white-space: pre;" direction="ltr">создании компонента</text></g><g transform="translate(246.63506167079913 202.39636527073696) rotate(0 95 12.500000000000014)"><text x="0" y="18" font-family="Virgil, Segoe UI Emoji" font-size="20px" fill="#000000" text-anchor="start" style="white-space: pre;" direction="ltr">появлении на сцене</text></g><g transform="translate(248.09357366539462 241.77618912478917) rotate(0 127 12.5)"><text x="0" y="18" font-family="Virgil, Segoe UI Emoji" font-size="20px" fill="#000000" text-anchor="start" style="white-space: pre;" direction="ltr">каждом обновление сцены</text></g><g transform="translate(227.6744057410706 31.021205905880294) rotate(0 132.5 12.5)"><text x="0" y="18" font-family="Virgil, Segoe UI Emoji" font-size="20px" fill="#000000" text-anchor="start" style="white-space: pre;" direction="ltr">Событие возникающее при:</text></g><g transform="translate(248.82282966269122 281.1560129788413) rotate(0 115 12.5)"><text x="0" y="18" font-family="Virgil, Segoe UI Emoji" font-size="20px" fill="#000000" text-anchor="start" style="white-space: pre;" direction="ltr">выключении компонента</text></g><g transform="translate(248.82282966269122 319.077324838299) rotate(0 107 12.5)"><text x="0" y="18" font-family="Virgil, Segoe UI Emoji" font-size="20px" fill="#000000" text-anchor="start" style="white-space: pre;" direction="ltr">уничтожении объекта</text></g><g transform="translate(250.2813416572858 362.8326846761346) rotate(0 113 12.5)"><text x="0" y="18" font-family="Virgil, Segoe UI Emoji" font-size="20px" fill="#000000" text-anchor="start" style="white-space: pre;" direction="ltr">освобождении ресурсов</text></g></svg>