<svg version="1.1" xmlns="http://www.w3.org/2000/svg" viewBox="0 0 266.9822491669936 181.85722618282978" width="533.9644983339872" height="363.71445236565955">
  <!-- svg-source:excalidraw -->
  
  <defs>
    <style class="style-fonts">
      @font-face {
        font-family: "Virgil";
        src: url("https://excalidraw.com/Virgil.woff2");
      }
      @font-face {
        font-family: "Cascadia";
        src: url("https://excalidraw.com/Cascadia.woff2");
      }
    </style>
  </defs>
  <g stroke-linecap="round" transform="translate(166.98745553816957 45.94979041985391) rotate(0 18.5 18)"><path d="M1.45 -1.47 C11.9 -1.36, 23.05 -0.73, 37.78 -1.62 M-0.61 -0.22 C13.83 0.57, 28.33 0.57, 36.12 0.88 M36.84 -0.4 C36.83 7.15, 38.44 13.77, 37.28 35.61 M37.23 0.43 C36.57 13.06, 37.47 25.31, 37.86 35.77 M38.49 36.99 C24.78 37.96, 14.41 37.55, -0.83 37.66 M36.4 35.64 C27.16 36.52, 16.9 34.85, -0.26 36.72 M1.63 37.82 C-0.57 23.82, 0.99 9.98, -1.85 -1.77 M-0.42 35.82 C-0.41 21.67, -0.73 8.38, 0.53 -0.49" stroke="#ffffff" stroke-width="1" fill="none"></path></g><g transform="translate(178.48745553816957 51.44979041985391) rotate(0 7 12.5)"><text x="7" y="18" font-family="Virgil, Segoe UI Emoji" font-size="20px" fill="#ffffff" text-anchor="middle" style="white-space: pre;" direction="ltr">w</text></g><g stroke-linecap="round" transform="translate(167.22632031100625 91.4883333463813) rotate(0 18.5 18)"><path d="M-0.69 -0.78 C12.3 -1.5, 26.05 -0.32, 38.45 -0.89 M0.74 -0.49 C7.93 0.55, 16.12 -0.64, 37.65 0.41 M38.84 0.55 C37.76 11.62, 36.3 24.31, 36.55 34.74 M36.29 0.76 C36.25 12.46, 36.79 25.74, 37.05 36.69 M38.61 35.6 C24.53 37.69, 16.1 35.39, -2 36.48 M36.91 36.95 C23.17 36.45, 11.87 36.11, -0.37 35.64 M-0.83 34.05 C-1.44 24.95, -0.24 12.55, 1.58 1.85 M0.91 35.86 C1.27 21.5, -0.51 9.32, 0.45 -0.19" stroke="#ffffff" stroke-width="1" fill="none"></path></g><g transform="translate(179.22632031100625 96.9883333463813) rotate(0 6.5 12.5)"><text x="6.5" y="18" font-family="Virgil, Segoe UI Emoji" font-size="20px" fill="#ffffff" text-anchor="middle" style="white-space: pre;" direction="ltr">s</text></g><g stroke-linecap="round" transform="translate(120.65166047942807 91.48833334638141) rotate(0 18.5 18)"><path d="M1.03 -0.65 C12.01 -1.65, 25.39 2.02, 37.59 -1.78 M-0.03 -0.1 C13.58 -0.22, 26.18 -0.35, 37.11 -0.66 M38.6 1.05 C38.2 14.13, 38.35 28.68, 36.36 37.78 M37.78 0.86 C36.97 12.6, 37.03 24.07, 36.4 35.51 M35.05 35.18 C25.76 35.07, 15.04 36.02, -1.69 34.11 M36.21 35.17 C26.06 36.3, 17.65 36.17, 0.58 36.56 M-1.52 37.29 C0.49 25.97, -0.19 15.17, -0.59 1.85 M0.34 36.42 C0.62 23, 0.48 9.4, 0.49 0.37" stroke="#ffffff" stroke-width="1" fill="none"></path></g><g transform="translate(131.65166047942807 96.98833334638141) rotate(0 7.5 12.5)"><text x="7.5" y="18" font-family="Virgil, Segoe UI Emoji" font-size="20px" fill="#ffffff" text-anchor="middle" style="white-space: pre;" direction="ltr">a</text></g><g stroke-linecap="round" transform="translate(215.0374755363439 90.6640030838754) rotate(0 18.5 18)"><path d="M1.29 0.46 C10.5 0.05, 20.22 -0.31, 38.85 1.43 M0.42 0.93 C14.73 0.67, 28.86 0.36, 37.37 0.96 M36.12 1.35 C38.61 10.65, 35.47 18.53, 38.48 37.53 M37.18 -0.51 C37.89 8.22, 36.83 14.18, 36.01 36.37 M38.23 34.21 C23.12 37.42, 11.45 35.67, -0.1 35.95 M37.75 36.76 C29.52 36.6, 20.66 35.77, -0.58 35.69 M1.63 37.63 C-0.9 22.95, -1.41 15.14, -0.91 -0.62 M-0.25 35.04 C0.44 23.65, -0.25 12.39, 0.12 -0.18" stroke="#ffffff" stroke-width="1" fill="none"></path></g><g transform="translate(227.0374755363439 96.1640030838754) rotate(0 6.5 12.5)"><text x="6.5" y="18" font-family="Virgil, Segoe UI Emoji" font-size="20px" fill="#ffffff" text-anchor="middle" style="white-space: pre;" direction="ltr">d</text></g><g stroke-linecap="round" transform="translate(118.61303820637181 136.85722618282978) rotate(0 66.77075126297098 17.5)"><path d="M-0.72 1.99 C38.82 2.41, 79.36 -0.03, 133.66 0.98 M0.93 0.48 C35.14 -1.55, 70.06 -1.6, 134.3 -0.03 M133.08 0.23 C131.99 13.22, 135.28 23.25, 134.87 36.42 M133.24 -0.53 C134.26 13.64, 133.95 26.8, 134.42 35.41 M133.12 36.99 C96.76 33.05, 62.01 34.12, 1.04 36.9 M133.34 34.02 C103.14 34.95, 70.47 34.31, -0.73 35.46 M-0.82 34.47 C0.41 21.23, -0.94 8.91, 0.76 0.97 M-0.45 35.04 C0.49 24.36, -0.39 11.65, 0.23 0.53" stroke="#ffffff" stroke-width="1" fill="none"></path></g><g transform="translate(156.8837894693429 141.85722618282978) rotate(0 28.5 12.5)"><text x="28.5" y="18" font-family="Virgil, Segoe UI Emoji" font-size="20px" fill="#ffffff" text-anchor="middle" style="white-space: pre;" direction="ltr">space</text></g><g stroke-linecap="round" transform="translate(60.98694130454828 63.260367525944844) rotate(0 21.638669390777636 36.47661411588234)"><path d="M16.17 1.64 C20.64 -0.75, 27.95 -0.34, 32 2.97 C36.04 6.28, 38.73 14.43, 40.44 21.5 C42.15 28.57, 43.21 37.89, 42.26 45.4 C41.31 52.92, 38.63 62.14, 34.76 66.59 C30.9 71.04, 23.99 72.79, 19.09 72.09 C14.2 71.39, 8.46 67.94, 5.4 62.38 C2.35 56.83, 1.11 46.68, 0.76 38.74 C0.42 30.8, -0.01 21.18, 3.33 14.75 C6.66 8.31, 17.12 2.46, 20.79 0.15 C24.46 -2.17, 25.3 0.21, 25.34 0.86 M27.9 0.39 C32.2 1.69, 36.46 9.75, 39.17 16.15 C41.88 22.55, 44.68 31.14, 44.15 38.79 C43.62 46.45, 39.2 56.39, 35.97 62.09 C32.73 67.78, 29.2 72.13, 24.75 72.97 C20.3 73.81, 13.24 71.46, 9.25 67.15 C5.26 62.84, 1.99 54.56, 0.81 47.09 C-0.38 39.62, 0.38 29.56, 2.13 22.31 C3.88 15.06, 7.02 6.96, 11.31 3.58 C15.6 0.19, 25.16 2.34, 27.88 2.01 C30.6 1.69, 27.98 1.31, 27.64 1.61" stroke="#ffffff" stroke-width="1" fill="none"></path></g><g stroke-linecap="round"><g transform="translate(63.04776696081308 93.76058723866015) rotate(0 10.140817116952576 0.16075679398534248)"><path d="M-0.97 0.23 C2.63 0.21, 17.89 1.11, 21.25 1 M0.72 -0.69 C4.29 -0.52, 17.38 -0.82, 20.86 -0.59" stroke="#ffffff" stroke-width="1" fill="none"></path></g></g><mask></mask><g stroke-linecap="round"><g transform="translate(83.65602352345854 64.08469778845074) rotate(0 -0.4717403389421406 15.692796234232105)"><path d="M-0.07 1.08 C-0.41 6.06, -1.39 24.55, -1.52 29.25 M-1.56 0.61 C-1.6 5.84, 0.66 25.78, 0.61 30.78" stroke="#ffffff" stroke-width="1" fill="none"></path></g></g><mask></mask><g stroke-linecap="round"><g transform="translate(72.84524416985573 79.95041268734735) rotate(0 -15.34360023646127 -17.013124239265153)"><path d="M0.72 -1.14 C-4.53 -6.88, -26.06 -29.65, -31.4 -34.9 M-0.37 0.88 C-5.24 -4.72, -24.35 -28.06, -29.1 -33.95" stroke="#ffffff" stroke-width="1" fill="none"></path></g></g><mask></mask><g transform="translate(13.473857717931878 18.526741671286914) rotate(0 27.5 12.5)"><text x="0" y="18" font-family="Virgil, Segoe UI Emoji" font-size="20px" fill="#ffffff" text-anchor="start" style="white-space: pre;" direction="ltr">Огонь</text></g><g transform="translate(10 144.8488405051669) rotate(0 28.5 12.5)"><text x="0" y="18" font-family="Virgil, Segoe UI Emoji" font-size="20px" fill="#ffffff" text-anchor="start" style="white-space: pre;" direction="ltr">Лазер</text></g><g stroke-linecap="round"><g transform="translate(72.2136336756862 159.2175297056067) rotate(0 27.667249379008695 -1.16705931380136)"><path d="M0.37 0.74 C9.81 0.04, 46.87 -2.54, 56.23 -3.08 M-0.9 0.08 C8.46 0.03, 45.96 -1.77, 55.46 -1.99" stroke="#ffffff" stroke-width="1" fill="none"></path></g></g><mask></mask><g transform="translate(117.9822491669936 10) rotate(0 69.5 12.5)"><text x="69.5" y="18" font-family="Virgil, Segoe UI Emoji" font-size="20px" fill="#ffffff" text-anchor="middle" style="white-space: pre;" direction="ltr">Передвижение</text></g></svg>