<svg version="1.1" xmlns="http://www.w3.org/2000/svg" viewBox="0 0 542.686060931939 579.4435249776518" width="542.686060931939" height="579.4435249776518">
  <!-- svg-source:excalidraw -->
  
  <defs>
    <style class="style-fonts">
      @font-face {
        font-family: "Virgil";
        src: url("https://excalidraw.com/Virgil.woff2");
      }
      @font-face {
        font-family: "Cascadia";
        src: url("https://excalidraw.com/Cascadia.woff2");
      }
    </style>
  </defs>
  <rect x="0" y="0" width="542.686060931939" height="579.4435249776518" fill="#ffffff"></rect><g transform="translate(34.81898919335981 387.25154790559174) rotate(0 74 12.5)"><text x="0" y="18" font-family="Virgil, Segoe UI Emoji" font-size="20px" fill="#000000" text-anchor="start" style="white-space: pre;" direction="ltr">AsteroidsScene</text></g><g transform="translate(205.16982377857676 239.80006094124582) rotate(0 75 12.5)"><text x="0" y="18" font-family="Virgil, Segoe UI Emoji" font-size="20px" fill="#000000" text-anchor="start" style="white-space: pre;" direction="ltr">ColliderProvider</text></g><g transform="translate(298.43676522238957 277.45908526588295) rotate(0 31.5 12.5)"><text x="0" y="18" font-family="Virgil, Segoe UI Emoji" font-size="20px" fill="#000000" text-anchor="start" style="white-space: pre;" direction="ltr">Player</text></g><g transform="translate(341.92658596017236 314.6911371033497) rotate(0 30.5 12.5)"><text x="0" y="18" font-family="Virgil, Segoe UI Emoji" font-size="20px" fill="#000000" text-anchor="start" style="white-space: pre;" direction="ltr">Bullet</text></g><g transform="translate(386.68820827920035 356.20202969278324) rotate(0 42 12.5)"><text x="0" y="18" font-family="Virgil, Segoe UI Emoji" font-size="20px" fill="#000000" text-anchor="start" style="white-space: pre;" direction="ltr">Asteroid</text></g><g transform="translate(460.2414882710668 389.81107459507547) rotate(0 21 12.5)"><text x="0" y="18" font-family="Virgil, Segoe UI Emoji" font-size="20px" fill="#000000" text-anchor="start" style="white-space: pre;" direction="ltr">UFO</text></g><g transform="translate(369.0332338043522 516.9488558700124) rotate(0 50 12.5)"><text x="0" y="18" font-family="Virgil, Segoe UI Emoji" font-size="20px" fill="#000000" text-anchor="start" style="white-space: pre;" direction="ltr">Component</text></g><g transform="translate(96.86021597292824 519.6566009694715) rotate(0 27.5 12.5)"><text x="0" y="18" font-family="Virgil, Segoe UI Emoji" font-size="20px" fill="#000000" text-anchor="start" style="white-space: pre;" direction="ltr">Scene</text></g><g stroke-linecap="round"><g transform="translate(75.56738836980708 421.55769291442067) rotate(0 -20.39846104208243 54.08319488035383)"><path d="M0.18 -0.56 C-8.69 12.4, -54.86 60.44, -52.79 78.5 C-50.73 96.55, 1.66 102.7, 12.58 107.78 M-1.19 1.77 C-10.17 14.81, -55.51 61.88, -53.29 79.71 C-51.08 97.54, 0.99 104.23, 12.07 108.72" stroke="#000000" stroke-width="1" fill="none"></path></g><g transform="translate(75.56738836980708 421.55769291442067) rotate(0 -20.39846104208243 54.08319488035383)"><path d="M-18.72 112.91 C-8.94 111.37, 0.81 110.61, 12.9 110.69 M-18.41 111.46 C-9.96 111.24, -0.82 110.26, 11.77 108.32" stroke="#000000" stroke-width="1" fill="none"></path></g><g transform="translate(75.56738836980708 421.55769291442067) rotate(0 -20.39846104208243 54.08319488035383)"><path d="M-13.51 93.06 C-5.33 98.11, 2.69 103.93, 12.9 110.69 M-13.2 91.61 C-6.08 96.94, 1.6 101.54, 11.77 108.32" stroke="#000000" stroke-width="1" fill="none"></path></g></g><mask></mask><g stroke-linecap="round" transform="translate(17.354053874430974 68.52351241877886) rotate(0 250.98421327828044 183.24862774562604)"><path d="M-0.4 -0.51 C166.21 -1.64, 334 -0.96, 501.51 0.24 M-0.21 0.22 C174.62 0.94, 348.64 1.02, 502.31 0 M501.69 0.28 C504.31 119.64, 502.88 237.29, 501.04 366.57 M502.11 0.3 C501.77 90.9, 502.04 181.24, 502.53 366.44 M501.67 367.2 C304.17 367.75, 107.16 367.46, -0.19 366.74 M501.71 366.1 C344.76 365.09, 187.02 365.01, 0.14 366.14 M1.05 366.63 C0.21 255.39, 0.79 143.43, -1.2 0.61 M-0.35 366.82 C2.3 256.25, 1.77 147.28, 0.26 0.22" stroke="#000000" stroke-width="1" fill="none"></path></g><g stroke-linecap="round" transform="translate(37.907091812179715 480.86985254039416) rotate(0 239.82325011329897 40.36275947384166)"><path d="M-0.58 -0.28 C117.62 -0.72, 234.28 -0.72, 480.23 -0.4 M-0.18 0.36 C191.12 1.66, 382.63 1.4, 479.91 0.18 M479.19 -1.46 C478.76 25.34, 479.24 52.41, 479.45 81.81 M480.06 0.89 C479.61 19.19, 479.43 40.29, 480.41 81.41 M479.35 81.2 C300.6 79.24, 123.9 79.78, -0.72 81.09 M479.22 80.9 C360.82 79.71, 242.21 79.56, 0.08 81 M0.52 82.29 C1.7 50.34, 0.72 14.26, 0.14 -1.73 M0.47 80.01 C1.2 56.99, -0.4 30.77, 0.65 0.45" stroke="#000000" stroke-width="1" fill="none"></path></g><g transform="translate(26.907909969271486 80.28205982945042) rotate(0.4467165407665727 116 12.5)"><text x="0" y="18" font-family="Virgil, Segoe UI Emoji" font-size="20px" fill="#000000" text-anchor="start" style="white-space: pre;" direction="ltr">AsteroidsGameEngine.dll</text></g><g transform="translate(44.2164487132186 487.02466126896536) rotate(0 127 12.5)"><text x="0" y="18" font-family="Virgil, Segoe UI Emoji" font-size="20px" fill="#000000" text-anchor="start" style="white-space: pre;" direction="ltr">EntityComponentSystem.dll</text></g><g stroke-linecap="round" transform="translate(10 10) rotate(0 261.3430304659695 279.7217624888259)"><path d="M-0.19 -0.19 C119.62 -0.14, 238.37 0.02, 522.81 0.08 M0.35 -0.31 C172.97 2.14, 346.58 1.75, 522.67 -0.07 M522.06 -0.07 C522.38 181.06, 522.79 361.73, 522.09 560.1 M522.71 0.26 C524.08 218.76, 523.82 438.67, 523 559.41 M523.32 559.73 C325.26 559.22, 126.78 559.28, -0.12 559.58 M522.56 559.09 C355.92 560.01, 189.88 560.28, -0.38 559.78 M0.35 559.52 C0.26 441.49, 0.13 323.2, 0.47 -0.41 M-0.02 559.44 C-2.03 373.85, -1.92 187.65, -0.27 0.22" stroke="#000000" stroke-width="1" fill="none"></path></g><g transform="translate(20.058771146268327 22.118993891777563) rotate(0 66.5 12.5)"><text x="0" y="18" font-family="Virgil, Segoe UI Emoji" font-size="20px" fill="#000000" text-anchor="start" style="white-space: pre;" direction="ltr">Наследование</text></g><g stroke-linecap="round"><g transform="translate(452.23733250283294 415.8947899259979) rotate(0 -38.58331545806334 44.687592718546426)"><path d="M-0.49 0.08 C-13.17 0.8, -66.98 -11.89, -76.03 3.46 C-85.08 18.81, -58.21 77.31, -54.81 92.18 M1.45 -0.92 C-11.33 -0.02, -67.09 -11.28, -76.6 4.47 C-86.11 20.21, -59.07 79.21, -55.62 93.54" stroke="#000000" stroke-width="1" fill="none"></path></g><g transform="translate(452.23733250283294 415.8947899259979) rotate(0 -38.58331545806334 44.687592718546426)"><path d="M-74.43 71.49 C-70.65 77.31, -63.05 83.02, -54.61 91.59 M-74.67 70.74 C-68.17 77.54, -61.32 84.98, -55.41 94.06" stroke="#000000" stroke-width="1" fill="none"></path></g><g transform="translate(452.23733250283294 415.8947899259979) rotate(0 -38.58331545806334 44.687592718546426)"><path d="M-55.05 64.75 C-57.21 72.55, -55.5 80.3, -54.61 91.59 M-55.29 64 C-55.16 72.94, -54.71 82.6, -55.41 94.06" stroke="#000000" stroke-width="1" fill="none"></path></g></g><mask></mask><g stroke-linecap="round"><g transform="translate(429.0658418349053 392.4638587322758) rotate(0 -27.89277405204291 59.03862027961341)"><path d="M0.29 0.92 C-8.86 6.08, -49.91 11.25, -55.31 30.56 C-60.7 49.88, -36.07 102.22, -32.08 116.8 M-1.02 0.36 C-9.76 5.67, -48.31 11.98, -53.08 31.54 C-57.85 51.1, -33.28 103.68, -29.63 117.72" stroke="#000000" stroke-width="1" fill="none"></path></g><g transform="translate(429.0658418349053 392.4638587322758) rotate(0 -27.89277405204291 59.03862027961341)"><path d="M-47.27 93.11 C-45.55 99.34, -39.93 106.71, -28.81 116.42 M-48.84 94.38 C-44.47 100.42, -40.16 106.25, -29.55 117.11" stroke="#000000" stroke-width="1" fill="none"></path></g><g transform="translate(429.0658418349053 392.4638587322758) rotate(0 -27.89277405204291 59.03862027961341)"><path d="M-27.96 86.18 C-31.41 94.3, -30.93 103.52, -28.81 116.42 M-29.52 87.45 C-29.52 94.93, -29.64 102.34, -29.55 117.11" stroke="#000000" stroke-width="1" fill="none"></path></g></g><mask></mask><g stroke-linecap="round"><g transform="translate(369.46129102687655 347.5311973539162) rotate(0 12.745785449778282 81.41278131300115)"><path d="M0.11 0.77 C-0.1 12.82, -5.39 46.27, -0.58 73.26 C4.24 100.25, 24.01 148.14, 29.01 162.7 M-1.29 0.13 C-1.66 12.22, -6.17 47.47, -1.19 74.27 C3.78 101.07, 23.33 146.43, 28.56 160.92" stroke="#000000" stroke-width="1" fill="none"></path></g><g transform="translate(369.46129102687655 347.5311973539162) rotate(0 12.745785449778282 81.41278131300115)"><path d="M10.07 139.42 C14.37 147.44, 24.91 156.16, 26.9 161.92 M9.56 137.38 C15.51 144.6, 20.5 153.47, 29.45 161.35" stroke="#000000" stroke-width="1" fill="none"></path></g><g transform="translate(369.46129102687655 347.5311973539162) rotate(0 12.745785449778282 81.41278131300115)"><path d="M29.19 131.99 C26.71 142.68, 30.39 154.07, 26.9 161.92 M28.68 129.94 C28.63 139.68, 27.56 150.91, 29.45 161.35" stroke="#000000" stroke-width="1" fill="none"></path></g></g><mask></mask><g stroke-linecap="round"><g transform="translate(322.7144717235399 315.00889755317405) rotate(0 38.18562530232123 97.16720592998124)"><path d="M-0.42 1.16 C5.45 16.4, 22.73 59, 35.6 90.84 C48.46 122.69, 69.64 175.34, 76.79 192.24 M1.56 0.72 C7.24 15.64, 22.24 56.72, 34.6 88.87 C46.96 121.02, 68.86 176.19, 75.7 193.62" stroke="#000000" stroke-width="1" fill="none"></path></g><g transform="translate(322.7144717235399 315.00889755317405) rotate(0 38.18562530232123 97.16720592998124)"><path d="M57.74 171.01 C62.76 177.65, 69.04 187.94, 75.92 195.51 M56.53 170.53 C64.19 179.99, 71.18 187.62, 74.95 193.38" stroke="#000000" stroke-width="1" fill="none"></path></g><g transform="translate(322.7144717235399 315.00889755317405) rotate(0 38.18562530232123 97.16720592998124)"><path d="M76.83 163.48 C75.49 172.55, 75.45 185.33, 75.92 195.51 M75.62 163 C76.23 175.08, 76.15 185.51, 74.95 193.38" stroke="#000000" stroke-width="1" fill="none"></path></g></g><mask></mask><g stroke-linecap="round"><g transform="translate(269.50904428726017 277.8397225629911) rotate(0 64.68295655998145 115.44340462958405)"><path d="M-0.34 0.57 C13.28 19.67, 61.26 76.85, 82.52 115.08 C103.79 153.31, 119.71 210.72, 127.26 229.97 M1.68 -0.17 C15.11 19.02, 60.43 77.73, 81.76 116.27 C103.1 154.81, 122.02 211.81, 129.7 231.06" stroke="#000000" stroke-width="1" fill="none"></path></g><g transform="translate(269.50904428726017 277.8397225629911) rotate(0 64.68295655998145 115.44340462958405)"><path d="M111.18 208.84 C116.39 215.26, 123.92 224.56, 129.98 232.87 M109.5 208.93 C117.7 216.63, 125.41 226.43, 129.73 230.69" stroke="#000000" stroke-width="1" fill="none"></path></g><g transform="translate(269.50904428726017 277.8397225629911) rotate(0 64.68295655998145 115.44340462958405)"><path d="M130.4 201.66 C128.58 210.67, 129.04 222.6, 129.98 232.87 M128.72 201.75 C129.52 212.32, 129.81 224.89, 129.73 230.69" stroke="#000000" stroke-width="1" fill="none"></path></g></g><mask></mask><g transform="translate(24.78883260084035 280.60088265371394) rotate(0 116 12.5)"><text x="0" y="18" font-family="Virgil, Segoe UI Emoji" font-size="20px" fill="#000000" text-anchor="start" style="white-space: pre;" direction="ltr">EnemyObjectsGenerator</text></g><g stroke-linecap="round"><g transform="translate(149.75875042995767 320.722413918441) rotate(0 124.38465256136578 94.24890565565605)"><path d="M0.76 0.85 C31.18 10.91, 142.69 30.52, 183.69 61.53 C224.69 92.55, 235.93 166, 246.74 186.94 M-0.3 0.25 C29.92 10.96, 141.55 31.36, 183.12 62.69 C224.68 94.03, 238.06 167.3, 249.07 188.24" stroke="#000000" stroke-width="1" fill="none"></path></g><g transform="translate(149.75875042995767 320.722413918441) rotate(0 124.38465256136578 94.24890565565605)"><path d="M231.09 166.54 C236.44 172.56, 245.32 184.67, 249.4 187.65 M229.8 165.13 C235.89 173.14, 242.11 181.64, 249.12 188.14" stroke="#000000" stroke-width="1" fill="none"></path></g><g transform="translate(149.75875042995767 320.722413918441) rotate(0 124.38465256136578 94.24890565565605)"><path d="M250.34 159.43 C248.09 168.4, 249.3 183.35, 249.4 187.65 M249.05 158.01 C248.37 168.57, 247.87 179.54, 249.12 188.14" stroke="#000000" stroke-width="1" fill="none"></path></g></g><mask></mask><g transform="translate(40.466179355566055 140.7048336061555) rotate(0 62 12.5)"><text x="0" y="18" font-family="Virgil, Segoe UI Emoji" font-size="20px" fill="#000000" text-anchor="start" style="white-space: pre;" direction="ltr">IHasPosition</text></g><g transform="translate(240.5636908933875 143.48396571084749) rotate(0 51.5 12.5)"><text x="0" y="18" font-family="Virgil, Segoe UI Emoji" font-size="20px" fill="#000000" text-anchor="start" style="white-space: pre;" direction="ltr">IHasSpeed</text></g><g transform="translate(382.2994282326772 174.05441886245904) rotate(0 67 12.5)"><text x="0" y="18" font-family="Virgil, Segoe UI Emoji" font-size="20px" fill="#000000" text-anchor="start" style="white-space: pre;" direction="ltr">IHasRotation</text></g><g stroke-linecap="round"><g transform="translate(463.828361274479 209.18983932950152) rotate(0 12.23373531919367 69.28835690145723)"><path d="M1.05 -0.86 C5.47 11.42, 28.01 50.95, 27.4 74.19 C26.78 97.44, 2.54 127.65, -2.66 138.62 M0.14 1.3 C4.42 13.75, 27.55 52.75, 27.04 75.77 C26.52 98.8, 2.16 128.51, -2.94 139.44" stroke="#000000" stroke-width="1" fill="none"></path></g><g transform="translate(463.828361274479 209.18983932950152) rotate(0 12.23373531919367 69.28835690145723)"><path d="M20.12 22.89 C13.98 14.58, 4.65 4.62, 1.81 0.97 M22.2 20.38 C13.91 14.35, 7.82 6.22, 1.53 -0.37" stroke="#000000" stroke-width="1" fill="none"></path></g><g transform="translate(463.828361274479 209.18983932950152) rotate(0 12.23373531919367 69.28835690145723)"><path d="M1.26 30.96 C2.1 19.49, -0.22 6.52, 1.81 0.97 M3.33 28.44 C1.24 19.8, 1.38 9, 1.53 -0.37" stroke="#000000" stroke-width="1" fill="none"></path></g></g><mask></mask><g stroke-linecap="round"><g transform="translate(465.0249354889929 211.64088117321995) rotate(0 -19.955980803336956 54.58540343235515)"><path d="M0.92 -0.67 C3.09 9, 21.64 40.23, 12.34 58.65 C3.05 77.07, -43.63 101.26, -54.84 109.84 M-0.05 1.59 C2.03 11.4, 20.2 42.43, 11.49 60.13 C2.77 77.84, -41.22 99.85, -52.33 107.84" stroke="#000000" stroke-width="1" fill="none"></path></g><g transform="translate(465.0249354889929 211.64088117321995) rotate(0 -19.955980803336956 54.58540343235515)"><path d="M18.48 23.09 C14.73 15.99, 11.41 10.03, 2.52 -2.37 M18.84 23.07 C11.54 12.76, 5.6 4.17, 1.38 -0.66" stroke="#000000" stroke-width="1" fill="none"></path></g><g transform="translate(465.0249354889929 211.64088117321995) rotate(0 -19.955980803336956 54.58540343235515)"><path d="M-0.98 29.61 C0.01 20.76, 1.46 13.2, 2.52 -2.37 M-0.62 29.58 C-0.22 16.53, 1.52 5.37, 1.38 -0.66" stroke="#000000" stroke-width="1" fill="none"></path></g></g><mask></mask><g stroke-linecap="round"><g transform="translate(460.8837140043745 211.93939981967395) rotate(0 -39.710017306033365 36.60695058094986)"><path d="M0.77 0.4 C1.54 7.68, 19.41 31.71, 4.21 43.68 C-11 55.65, -74.92 67.51, -90.47 72.21 M-0.28 -0.44 C0.89 6.5, 21.63 29.59, 6.44 41.94 C-8.75 54.28, -75 68.49, -91.4 73.65" stroke="#000000" stroke-width="1" fill="none"></path></g><g transform="translate(460.8837140043745 211.93939981967395) rotate(0 -39.710017306033365 36.60695058094986)"><path d="M19.75 22.64 C15.36 17.37, 9.63 13.24, 0.58 -0.8 M19.56 23.18 C12.96 17.72, 8.3 10.59, 0.3 -0.21" stroke="#000000" stroke-width="1" fill="none"></path></g><g transform="translate(460.8837140043745 211.93939981967395) rotate(0 -39.710017306033365 36.60695058094986)"><path d="M0.2 28.85 C1.07 21.78, 0.6 15.99, 0.58 -0.8 M0 29.4 C-1.24 22.21, -0.51 13.37, 0.3 -0.21" stroke="#000000" stroke-width="1" fill="none"></path></g></g><mask></mask><g stroke-linecap="round"><g transform="translate(322.2006085122066 181.2016641259978) rotate(0 27.911775485211933 44.66961977524157)"><path d="M-0.28 0.78 C9.07 8.74, 53.53 32.34, 55.99 47.08 C58.45 61.81, 21.4 82.51, 14.47 89.2 M1.77 0.14 C10.94 8.27, 52.33 33.48, 54.83 48.04 C57.33 62.6, 23.55 80.83, 16.76 87.49" stroke="#000000" stroke-width="1" fill="none"></path></g><g transform="translate(322.2006085122066 181.2016641259978) rotate(0 27.911775485211933 44.66961977524157)"><path d="M28.54 7.45 C17.5 4, 13.35 1.83, -1.55 1.43 M27.59 7.74 C17.18 5.61, 8.15 3.74, 0.33 1.4" stroke="#000000" stroke-width="1" fill="none"></path></g><g transform="translate(322.2006085122066 181.2016641259978) rotate(0 27.911775485211933 44.66961977524157)"><path d="M17.38 23.43 C9.66 15.38, 8.74 8.58, -1.55 1.43 M16.42 23.71 C9.91 16, 4.81 8.52, 0.33 1.4" stroke="#000000" stroke-width="1" fill="none"></path></g></g><mask></mask><g stroke-linecap="round"><g transform="translate(323.20716950648693 181.20166412599775) rotate(0 34.3291029761715 61.11617957457352)"><path d="M-0.17 0.29 C11.27 8.27, 59.1 27.92, 68.12 48.22 C77.14 68.52, 56.29 109.51, 53.96 122.1 M-1.71 -0.61 C9.59 7.02, 57.86 26.03, 67.05 46.61 C76.23 67.18, 55.47 110.35, 53.41 122.84" stroke="#000000" stroke-width="1" fill="none"></path></g><g transform="translate(323.20716950648693 181.20166412599775) rotate(0 34.3291029761715 61.11617957457352)"><path d="M29.84 5.22 C23.29 4.89, 12.16 3.83, 0.8 -1.22 M29.99 6.38 C22.43 4.62, 14.19 4.08, -0.37 0.37" stroke="#000000" stroke-width="1" fill="none"></path></g><g transform="translate(323.20716950648693 181.20166412599775) rotate(0 34.3291029761715 61.11617957457352)"><path d="M19.51 22.95 C15.6 18.03, 7.14 12.36, 0.8 -1.22 M19.66 24.11 C14.53 17.97, 8.79 13.14, -0.37 0.37" stroke="#000000" stroke-width="1" fill="none"></path></g></g><mask></mask><g stroke-linecap="round"><g transform="translate(322.50523147998774 180.3766106477944) rotate(0 53.689005041222686 83.88841886137524)"><path d="M-0.26 0.41 C14.52 11.27, 71.28 36.86, 89.26 64.82 C107.25 92.79, 104.55 150.97, 107.63 168.19 M1.81 -0.41 C16.36 10.61, 70.74 38.15, 88.22 65.92 C105.7 93.68, 103.42 149.51, 106.69 166.17" stroke="#000000" stroke-width="1" fill="none"></path></g><g transform="translate(322.50523147998774 180.3766106477944) rotate(0 53.689005041222686 83.88841886137524)"><path d="M29.81 6.22 C17.43 3.76, 9.58 1.81, 0.7 2.18 M30.01 6.16 C20.09 5, 12.36 3.5, 0.67 0.62" stroke="#000000" stroke-width="1" fill="none"></path></g><g transform="translate(322.50523147998774 180.3766106477944) rotate(0 53.689005041222686 83.88841886137524)"><path d="M19.02 23.68 C10.47 15.12, 6.4 7.06, 0.7 2.18 M19.22 23.61 C12.29 17.69, 7.54 11.38, 0.67 0.62" stroke="#000000" stroke-width="1" fill="none"></path></g></g><mask></mask><g stroke-linecap="round"><g transform="translate(322.3725245024384 182.07737954921475) rotate(0 81.38629609563623 99.18860406450702)"><path d="M0.13 -0.57 C19.93 13.42, 91.12 49.98, 118.44 83.05 C145.75 116.12, 156.45 178.47, 164.03 197.86 M-1.26 1.75 C18.51 15.46, 90.6 48.35, 118.05 81.21 C145.5 114.08, 155.74 179.58, 163.45 198.95" stroke="#000000" stroke-width="1" fill="none"></path></g><g transform="translate(322.3725245024384 182.07737954921475) rotate(0 81.38629609563623 99.18860406450702)"><path d="M28.48 7.67 C22.55 4.77, 13.06 2.91, 1.95 -2.22 M28.74 6.1 C21.13 4.08, 11.26 2.42, -0.05 0.33" stroke="#000000" stroke-width="1" fill="none"></path></g><g transform="translate(322.3725245024384 182.07737954921475) rotate(0 81.38629609563623 99.18860406450702)"><path d="M17.48 24.99 C14.62 17.45, 8.08 10.95, 1.95 -2.22 M17.74 23.42 C13.4 16.34, 6.81 9.51, -0.05 0.33" stroke="#000000" stroke-width="1" fill="none"></path></g></g><mask></mask><g stroke-linecap="round"><g transform="translate(172.9381430125486 158.96860728846207) rotate(0 29.56651161573052 -0.4863343478931341)"><path d="M1.19 -0.9 C11.06 -1.23, 49.01 -2.22, 58.77 -2.21 M0.36 1.24 C10.06 1.11, 47.74 -0.21, 57.55 -0.86" stroke="#000000" stroke-width="1" fill="none"></path></g><g transform="translate(172.9381430125486 158.96860728846207) rotate(0 29.56651161573052 -0.4863343478931341)"><path d="M27.29 -12.62 C20.86 -7.85, 15.8 -5.48, -0.68 -2.72 M29.12 -12.64 C20.42 -7.65, 11.21 -4.87, 1.86 -1.43" stroke="#000000" stroke-width="1" fill="none"></path></g><g transform="translate(172.9381430125486 158.96860728846207) rotate(0 29.56651161573052 -0.4863343478931341)"><path d="M27.81 7.66 C21.28 7.06, 16.09 4.05, -0.68 -2.72 M29.64 7.64 C20.76 6.24, 11.38 2.63, 1.86 -1.43" stroke="#000000" stroke-width="1" fill="none"></path></g></g><mask></mask><g stroke-linecap="round"><g transform="translate(272.111128749131 227.94666333130078) rotate(0 -47.962758540865025 -35.116369484757456)"><path d="M-0.07 0.95 C-7.72 -9.4, -30.7 -51.16, -46.59 -63.15 C-62.48 -75.14, -87.04 -69.82, -95.4 -70.99 M-1.56 0.41 C-8.76 -9.74, -28.47 -50.45, -44.19 -62.21 C-59.9 -73.98, -87.07 -69.03, -95.86 -70.19" stroke="#000000" stroke-width="1" fill="none"></path></g><g transform="translate(272.111128749131 227.94666333130078) rotate(0 -47.962758540865025 -35.116369484757456)"><path d="M-70.47 -79.81 C-79.86 -75.74, -85.41 -75.87, -96.15 -72.03 M-72.03 -79.8 C-79.17 -75.37, -87.35 -73.59, -95.99 -70.2" stroke="#000000" stroke-width="1" fill="none"></path></g><g transform="translate(272.111128749131 227.94666333130078) rotate(0 -47.962758540865025 -35.116369484757456)"><path d="M-70.49 -62.49 C-79.72 -62.65, -85.26 -67.01, -96.15 -72.03 M-72.05 -62.48 C-79.24 -63.62, -87.41 -67.42, -95.99 -70.2" stroke="#000000" stroke-width="1" fill="none"></path></g></g><mask></mask></svg>