<svg version="1.1" xmlns="http://www.w3.org/2000/svg" viewBox="0 0 566.5278812551503 628.8834113312412" width="566.5278812551503" height="628.8834113312412">
  <!-- svg-source:excalidraw -->
  
  <defs>
    <style class="style-fonts">
      @font-face {
        font-family: "Virgil";
        src: url("https://excalidraw.com/Virgil.woff2");
      }
      @font-face {
        font-family: "Cascadia";
        src: url("https://excalidraw.com/Cascadia.woff2");
      }
    </style>
  </defs>
  <rect x="0" y="0" width="566.5278812551503" height="628.8834113312412" fill="#ffffff"></rect><g transform="translate(103.1250718083395 569.7657312241834) rotate(0 36 12.5)"><text x="0" y="18" font-family="Virgil, Segoe UI Emoji" font-size="20px" fill="#000000" text-anchor="start" style="white-space: pre;" direction="ltr">Collider</text></g><g transform="translate(45.5178078875133 421.8220774553649) rotate(0 75 12.5)"><text x="0" y="18" font-family="Virgil, Segoe UI Emoji" font-size="20px" fill="#000000" text-anchor="start" style="white-space: pre;" direction="ltr">ColliderProvider</text></g><g transform="translate(209.66404183372947 388.3553567154631) rotate(0 31.5 12.5)"><text x="0" y="18" font-family="Virgil, Segoe UI Emoji" font-size="20px" fill="#000000" text-anchor="start" style="white-space: pre;" direction="ltr">Player</text></g><g transform="translate(269.75038435798 426.90708896446233) rotate(0 30.5 12.5)"><text x="0" y="18" font-family="Virgil, Segoe UI Emoji" font-size="20px" fill="#000000" text-anchor="start" style="white-space: pre;" direction="ltr">Bullet</text></g><g transform="translate(303.29472317898285 467.09830114236337) rotate(0 42 12.5)"><text x="0" y="18" font-family="Virgil, Segoe UI Emoji" font-size="20px" fill="#000000" text-anchor="start" style="white-space: pre;" direction="ltr">Asteroid</text></g><g transform="translate(376.84800317084887 500.70734604465537) rotate(0 21 12.5)"><text x="0" y="18" font-family="Virgil, Segoe UI Emoji" font-size="20px" fill="#000000" text-anchor="start" style="white-space: pre;" direction="ltr">UFO</text></g><g stroke-linecap="round"><g transform="translate(241.64472365534698 424.53818001839466) rotate(0 -22.505467830799944 73.36562039597675)"><path d="M-1.11 0.79 C0.59 15.56, 18.47 65.14, 8.99 89.43 C-0.5 113.73, -47.12 136.98, -58.03 146.57 M0.51 0.16 C2.67 14.49, 21.08 63.47, 11.15 87.55 C1.22 111.62, -47.34 135.03, -59.08 144.61" stroke="#000000" stroke-width="1" fill="none"></path></g><g transform="translate(241.64472365534698 424.53818001839466) rotate(0 -22.505467830799944 73.36562039597675)"><path d="M-39.72 118.9 C-43.77 124.4, -46.96 131.9, -57.22 144.34 M-40.28 121.41 C-47.12 127.17, -51.31 133.15, -58.15 143.77" stroke="#000000" stroke-width="1" fill="none"></path></g><g transform="translate(241.64472365534698 424.53818001839466) rotate(0 -22.505467830799944 73.36562039597675)"><path d="M-28.54 136.11 C-34.96 138.03, -40.41 142.06, -57.22 144.34 M-29.1 138.62 C-38.96 139.63, -46.27 140.82, -58.15 143.77" stroke="#000000" stroke-width="1" fill="none"></path></g></g><g stroke-linecap="round"><g transform="translate(126.85700883711797 561.0898985893145) rotate(0 3.2880512808820868 -50.90851481865883)"><path d="M-0.31 0.7 C0.94 -16.04, 5.5 -83.68, 6.89 -100.71 M1.73 0.03 C2.85 -17.05, 4.82 -85.8, 5.82 -102.52" stroke="#000000" stroke-width="1" fill="none"></path></g><g transform="translate(126.85700883711797 561.0898985893145) rotate(0 3.2880512808820868 -50.90851481865883)"><path d="M16.05 -74.31 C13.65 -79.65, 10.05 -87.51, 4.01 -103.59 M15.32 -73.78 C11.23 -85.43, 7.12 -95.91, 5.41 -102.26" stroke="#000000" stroke-width="1" fill="none"></path></g><g transform="translate(126.85700883711797 561.0898985893145) rotate(0 3.2880512808820868 -50.90851481865883)"><path d="M-4.45 -75.18 C-1.69 -80.24, -0.14 -87.89, 4.01 -103.59 M-5.18 -74.64 C-1.17 -86.02, 2.83 -96.15, 5.41 -102.26" stroke="#000000" stroke-width="1" fill="none"></path></g></g><g stroke-linecap="round"><g transform="translate(297.63995382846474 462.3611627972294) rotate(0 -56.25596590766577 54.12198697188941)"><path d="M0.48 0.32 C-7.44 10.36, -29.51 42.11, -48.35 59.95 C-67.18 77.79, -101.77 99.44, -112.5 107.39 M-0.72 -0.55 C-8.18 9.64, -27.28 42.82, -45.99 61.04 C-64.7 79.27, -101.94 100.82, -112.99 108.8" stroke="#000000" stroke-width="1" fill="none"></path></g><g transform="translate(297.63995382846474 462.3611627972294) rotate(0 -56.25596590766577 54.12198697188941)"><path d="M-94.53 83.61 C-100.67 91.22, -103.08 96.4, -112.33 109.9 M-95.76 85.34 C-100.49 91.52, -103.92 97.38, -112.67 109.38" stroke="#000000" stroke-width="1" fill="none"></path></g><g transform="translate(297.63995382846474 462.3611627972294) rotate(0 -56.25596590766577 54.12198697188941)"><path d="M-83.26 100.76 C-91.95 104.46, -96.97 105.69, -112.33 109.9 M-84.49 102.49 C-92.04 104.29, -98.31 105.82, -112.67 109.38" stroke="#000000" stroke-width="1" fill="none"></path></g></g><g stroke-linecap="round"><g transform="translate(353.3446029301474 503.3052623099308) rotate(0 -85.28007974344814 33.01122806126847)"><path d="M-0.05 -1.12 C-16.29 2.64, -69.34 11.21, -97.75 22.34 C-126.16 33.47, -158.56 58.48, -170.51 65.65 M-1.53 0.91 C-17.37 4.88, -67.74 12.81, -95.51 23.85 C-123.28 34.89, -155.87 60.04, -168.15 67.14" stroke="#000000" stroke-width="1" fill="none"></path></g><g transform="translate(353.3446029301474 503.3052623099308) rotate(0 -85.28007974344814 33.01122806126847)"><path d="M-152.07 41.6 C-155.27 47.99, -159.54 56.3, -168.09 69.14 M-150.16 43.77 C-154.01 48.88, -158.98 54.07, -168.86 67.16" stroke="#000000" stroke-width="1" fill="none"></path></g><g transform="translate(353.3446029301474 503.3052623099308) rotate(0 -85.28007974344814 33.01122806126847)"><path d="M-140.81 58.77 C-147.07 60.44, -154.43 64.05, -168.09 69.14 M-138.91 60.93 C-145.47 62, -153.15 63.07, -168.86 67.16" stroke="#000000" stroke-width="1" fill="none"></path></g></g><g stroke-linecap="round"><g transform="translate(386.97024902889893 536.7478451851969) rotate(0 -100.67911996988164 10.743887040549112)"><path d="M0.72 -0.57 C-19.57 -2.73, -88.03 -18.19, -121.74 -12.24 C-155.45 -6.3, -188.23 27.39, -201.54 35.08 M-0.37 1.75 C-20.81 -0.3, -89.1 -16.16, -122.72 -10.89 C-156.33 -5.62, -189 25.7, -202.07 33.36" stroke="#000000" stroke-width="1" fill="none"></path></g><g transform="translate(386.97024902889893 536.7478451851969) rotate(0 -100.67911996988164 10.743887040549112)"><path d="M-186.16 8.46 C-190.68 16.78, -193.14 24.09, -202.02 34.38 M-185.99 9.08 C-190.78 16.26, -196.69 24.68, -202.26 34.1" stroke="#000000" stroke-width="1" fill="none"></path></g><g transform="translate(386.97024902889893 536.7478451851969) rotate(0 -100.67911996988164 10.743887040549112)"><path d="M-174.16 25.1 C-182.35 28.54, -188.39 30.88, -202.02 34.38 M-173.98 25.72 C-182.71 27.42, -192.59 30.34, -202.26 34.1" stroke="#000000" stroke-width="1" fill="none"></path></g></g><g transform="translate(245.54282774369062 267.8521157912688) rotate(0 74 12.5)"><text x="0" y="18" font-family="Virgil, Segoe UI Emoji" font-size="20px" fill="#000000" text-anchor="start" style="white-space: pre;" direction="ltr">AsteroidsScene</text></g><g transform="translate(41.51802950191109 127.55098706560474) rotate(0 27.5 12.5)"><text x="0" y="18" font-family="Virgil, Segoe UI Emoji" font-size="20px" fill="#000000" text-anchor="start" style="white-space: pre;" direction="ltr">Scene</text></g><g stroke-linecap="round"><g transform="translate(331.8884978616172 303.70501899131716) rotate(0 -37.40213894450358 36.407193794822945)"><path d="M0.55 -0.43 C-8.38 5.87, -41.1 24.97, -53.71 37.29 C-66.32 49.62, -71.38 67.53, -75.1 73.5 M-0.62 -1.7 C-9.7 4.8, -42.27 25.78, -54.72 38.48 C-67.18 51.18, -71.84 68.64, -75.35 74.51" stroke="#000000" stroke-width="1" fill="none"></path></g><g transform="translate(331.8884978616172 303.70501899131716) rotate(0 -37.40213894450358 36.407193794822945)"><path d="M-74.36 53.1 C-75.33 61.05, -75.69 65.56, -76.95 75.5 M-73.43 52.94 C-74.02 60.62, -75.35 68.83, -75.34 73.71" stroke="#000000" stroke-width="1" fill="none"></path></g><g transform="translate(331.8884978616172 303.70501899131716) rotate(0 -37.40213894450358 36.407193794822945)"><path d="M-61.12 59.16 C-65.89 65.42, -70.05 68.19, -76.95 75.5 M-60.2 59 C-65.6 64.57, -71.78 70.57, -75.34 73.71" stroke="#000000" stroke-width="1" fill="none"></path></g></g><g stroke-linecap="round"><g transform="translate(331.4761039090647 303.56720046252093) rotate(0 -11.356612837150578 57.71154772390531)"><path d="M-0.5 -0.05 C-1.67 10.28, -2.49 43.86, -6.35 63.11 C-10.21 82.35, -20.74 106.68, -23.67 115.42 M1.44 -1.12 C0.58 9.4, 0.16 41.86, -4.11 61.47 C-8.37 81.09, -20.92 107.37, -24.15 116.55" stroke="#000000" stroke-width="1" fill="none"></path></g><g transform="translate(331.4761039090647 303.56720046252093) rotate(0 -11.356612837150578 57.71154772390531)"><path d="M-23.23 86.66 C-21.68 99.22, -24.22 108.96, -24.57 116.31 M-22.59 88.54 C-24.3 99.93, -23.55 110.2, -23.95 115.78" stroke="#000000" stroke-width="1" fill="none"></path></g><g transform="translate(331.4761039090647 303.56720046252093) rotate(0 -11.356612837150578 57.71154772390531)"><path d="M-5.22 93.95 C-10.17 103.83, -19.15 110.96, -24.57 116.31 M-4.58 95.82 C-13.52 104.32, -19.94 111.68, -23.95 115.78" stroke="#000000" stroke-width="1" fill="none"></path></g></g><g stroke-linecap="round"><g transform="translate(331.8346142344715 303.4440081528323) rotate(0 14.875399869184093 76.38729775716536)"><path d="M0.28 -0.5 C5.48 16.36, 27.38 74.54, 30.35 100.27 C33.33 126, 19.99 144.6, 18.12 153.88 M-1.03 -1.81 C4.1 15.26, 25.91 75.24, 29.51 101.31 C33.12 127.38, 22.27 145.82, 20.61 154.58" stroke="#000000" stroke-width="1" fill="none"></path></g><g transform="translate(331.8346142344715 303.4440081528323) rotate(0 14.875399869184093 76.38729775716536)"><path d="M18.69 127.45 C17.98 132.1, 17.86 140.09, 22.12 153.26 M19.43 128.01 C19.35 137.74, 20.02 148.21, 20.81 154.95" stroke="#000000" stroke-width="1" fill="none"></path></g><g transform="translate(331.8346142344715 303.4440081528323) rotate(0 14.875399869184093 76.38729775716536)"><path d="M36.6 133.18 C31.83 136.55, 27.61 143.23, 22.12 153.26 M37.34 133.73 C30.21 141.37, 23.82 149.58, 20.81 154.95" stroke="#000000" stroke-width="1" fill="none"></path></g></g><g stroke-linecap="round"><g transform="translate(331.1841057049303 302.36966629806) rotate(0 36.38237825987176 93.85999798265541)"><path d="M-1.12 -0.75 C9.83 21.35, 54.09 100.86, 66.44 132.24 C78.79 163.61, 71.75 178.35, 72.99 187.5 M0.49 1.47 C11.28 23.71, 53.9 102.04, 65.84 133.21 C77.78 164.38, 70.7 179.39, 72.14 188.47" stroke="#000000" stroke-width="1" fill="none"></path></g><g transform="translate(331.1841057049303 302.36966629806) rotate(0 36.38237825987176 93.85999798265541)"><path d="M62.1 163.34 C64.66 171.52, 68.51 182.46, 70.42 186.79 M62.84 162.79 C65.56 168.57, 67.68 172.27, 72.9 189.4" stroke="#000000" stroke-width="1" fill="none"></path></g><g transform="translate(331.1841057049303 302.36966629806) rotate(0 36.38237825987176 93.85999798265541)"><path d="M81.02 163.83 C76.75 171.66, 73.77 182.42, 70.42 186.79 M81.77 163.28 C80.49 169.04, 78.62 172.64, 72.9 189.4" stroke="#000000" stroke-width="1" fill="none"></path></g></g><g stroke-linecap="round"><g transform="translate(328.3608423977205 300.72801037213424) rotate(0 -95.13896847991566 55.71999458346829)"><path d="M-0.44 0.83 C-21.55 8.42, -95.71 28.54, -127.46 46.74 C-159.21 64.94, -180.28 99.59, -190.93 110.01 M1.52 0.22 C-19.6 7.98, -95.78 26.55, -128 45.05 C-160.22 63.55, -181.23 100.42, -191.8 111.22" stroke="#000000" stroke-width="1" fill="none"></path></g><g transform="translate(328.3608423977205 300.72801037213424) rotate(0 -95.13896847991566 55.71999458346829)"><path d="M-180.93 84.05 C-182.86 88.98, -186.75 94.87, -193.39 112.6 M-182.06 82.75 C-184.5 91.9, -188.68 99.39, -192.28 111.95" stroke="#000000" stroke-width="1" fill="none"></path></g><g transform="translate(328.3608423977205 300.72801037213424) rotate(0 -95.13896847991566 55.71999458346829)"><path d="M-164.86 96.81 C-170.64 98.72, -178.25 101.66, -193.39 112.6 M-165.98 95.5 C-173.22 100.75, -182.27 104.37, -192.28 111.95" stroke="#000000" stroke-width="1" fill="none"></path></g></g><g stroke-linecap="round" transform="translate(19.538608149696074 224.6122157409913) rotate(0 207.8778219154308 193.2127198402681)"><path d="M0.92 -0.76 C164.18 1.89, 328.85 1.02, 415.13 0.48 M-0.47 0.1 C145.42 -1.45, 290.18 -1.39, 416.04 -0.43 M416.45 1.14 C417.47 102.89, 416.8 206.65, 415.28 387.57 M415.32 0.46 C414.91 89.87, 415.31 180.58, 415.68 386.14 M414.74 386.83 C299.92 384.92, 185.44 385.98, -0.5 387.51 M415.84 386.96 C280.31 388.02, 145.92 387.76, 0.02 386.49 M0.55 387.44 C1.52 293.4, 1.79 202.46, -0.28 0.63 M0.57 386.22 C-1.14 301.65, -0.9 217.71, 0.51 0.07" stroke="#000000" stroke-width="1" fill="none"></path></g><g transform="translate(29.070924498551676 236.87661374997714) rotate(0.4467165407665727 116 12.5)"><text x="0" y="18" font-family="Virgil, Segoe UI Emoji" font-size="20px" fill="#000000" text-anchor="start" style="white-space: pre;" direction="ltr">AsteroidsGameEngine.dll</text></g><g transform="translate(216.81622391232054 130.55462370504796) rotate(0 59 12.5)"><text x="0" y="18" font-family="Virgil, Segoe UI Emoji" font-size="20px" fill="#000000" text-anchor="start" style="white-space: pre;" direction="ltr">GameObject</text></g><g stroke-linecap="round"><g transform="translate(104.3122806639376 140.3377836526531) rotate(0 49.45692147727516 0.5938331357217095)"><path d="M0.15 0.8 C16.64 0.99, 81.38 0.11, 98.03 -0.06 M-1.22 0.18 C15.7 0.63, 83.31 1.13, 100.14 1.24" stroke="#000000" stroke-width="1" fill="none"></path></g><g transform="translate(104.3122806639376 140.3377836526531) rotate(0 49.45692147727516 0.5938331357217095)"><path d="M29.61 -11.59 C21.09 -5.84, 14.58 -3.54, 0.52 -0.56 M28.23 -10.12 C21.71 -7.94, 13.39 -5.14, -0.6 1.56" stroke="#000000" stroke-width="1" fill="none"></path></g><g transform="translate(104.3122806639376 140.3377836526531) rotate(0 49.45692147727516 0.5938331357217095)"><path d="M29.77 8.93 C21.41 10.06, 14.86 7.75, 0.52 -0.56 M28.39 10.4 C21.88 7.27, 13.52 4.76, -0.6 1.56" stroke="#000000" stroke-width="1" fill="none"></path></g><g transform="translate(104.3122806639376 140.3377836526531) rotate(0 49.45692147727516 0.5938331357217095)"><path d="M73.21 9.38 C77.57 10.44, 83.74 8.13, 100.5 -0.12 M71.83 10.85 C79.96 7.76, 86.23 5.25, 99.38 2" stroke="#000000" stroke-width="1" fill="none"></path></g><g transform="translate(104.3122806639376 140.3377836526531) rotate(0 49.45692147727516 0.5938331357217095)"><path d="M73.36 -11.14 C77.5 -5.46, 83.62 -3.16, 100.5 -0.12 M71.99 -9.67 C80.02 -7.45, 86.25 -4.65, 99.38 2" stroke="#000000" stroke-width="1" fill="none"></path></g></g><g transform="translate(436.72077112346483 131.29187791526675) rotate(0 50 12.5)"><text x="0" y="18" font-family="Virgil, Segoe UI Emoji" font-size="20px" fill="#000000" text-anchor="start" style="white-space: pre;" direction="ltr">Component</text></g><g stroke-linecap="round"><g transform="translate(341.2145810912418 141.9383587217724) rotate(0 42.18516022161111 0.5921158310362387)"><path d="M0.91 0.11 C14.88 0.17, 70.56 0.52, 84.44 0.57 M-0.07 -0.87 C13.75 -0.65, 69.95 1.64, 83.92 2.06" stroke="#000000" stroke-width="1" fill="none"></path></g><g transform="translate(341.2145810912418 141.9383587217724) rotate(0 42.18516022161111 0.5921158310362387)"><path d="M29.34 -8.65 C19.07 -5.26, 8.88 -4.2, 1.01 1.65 M28.83 -9.14 C23.85 -8.51, 17.2 -5.11, 0.8 0.07" stroke="#000000" stroke-width="1" fill="none"></path></g><g transform="translate(341.2145810912418 141.9383587217724) rotate(0 42.18516022161111 0.5921158310362387)"><path d="M29.23 11.87 C18.95 8.04, 8.81 1.87, 1.01 1.65 M28.71 11.38 C23.81 7.6, 17.18 6.58, 0.8 0.07" stroke="#000000" stroke-width="1" fill="none"></path></g><g transform="translate(341.2145810912418 141.9383587217724) rotate(0 42.18516022161111 0.5921158310362387)"><path d="M55.57 12.64 C65.25 8.8, 75.07 3.04, 84.02 3.6 M55.05 12.16 C62.34 8.74, 67.93 7.97, 83.81 2.02" stroke="#000000" stroke-width="1" fill="none"></path></g><g transform="translate(341.2145810912418 141.9383587217724) rotate(0 42.18516022161111 0.5921158310362387)"><path d="M56.3 -7.86 C65.77 -4.48, 75.33 -3.02, 84.02 3.6 M55.78 -8.35 C62.87 -7.35, 68.29 -3.7, 83.81 2.02" stroke="#000000" stroke-width="1" fill="none"></path></g></g><g stroke-linecap="round" transform="translate(18.80135393947603 78.69045098666189) rotate(0 265.0717200085652 52.06111236682746)"><path d="M-0.74 -0.62 C186.87 1.69, 373.15 1.02, 530.74 0.43 M0 -0.33 C169.42 1.89, 338.56 1.9, 530.38 -0.13 M530.52 -2 C528.15 26.99, 530.41 53.12, 530.25 105.22 M531.09 -0.08 C529.18 23.54, 529.71 46.11, 529.49 104.53 M529.73 103.48 C367.4 103.63, 204.94 102.66, -0.14 103.7 M530.38 104.21 C326.5 104.52, 122.22 105.07, -0.15 104.36 M0.83 103.94 C0.81 82.95, -2.48 59.97, -0.33 0.19 M0.8 104.29 C0.37 71.59, 0.45 39.22, -0.03 0.66" stroke="#000000" stroke-width="1" fill="none"></path></g><g transform="translate(25.404648979760395 84.3595521682854) rotate(0 127 12.5)"><text x="0" y="18" font-family="Virgil, Segoe UI Emoji" font-size="20px" fill="#000000" text-anchor="start" style="white-space: pre;" direction="ltr">EntityComponentSystem.dll</text></g><g stroke-linecap="round" transform="translate(10 9.999999999999986) rotate(0 273.26394062757515 304.4417056656206)"><path d="M0.24 0.52 C204.84 0.46, 409.38 0.76, 546.29 0.44 M0.15 -0.03 C193.07 -1.89, 386.34 -2.07, 546.63 0.06 M546.89 -0.62 C547.78 162.22, 546.6 323.56, 546.88 608.91 M546.39 -0.1 C546.17 125.01, 546.35 250.01, 546.86 608.56 M547.01 609.09 C425.82 609.65, 304.12 609.4, -0.11 608.89 M546.67 608.53 C390.82 607.5, 235.47 606.98, -0.19 609.23 M-0.41 609.64 C-1.51 440.52, -2.75 271.21, -0.48 -0.02 M0.34 608.94 C-2.3 430.35, -1.97 251.47, -0.38 -0.02" stroke="#000000" stroke-width="1" fill="none"></path></g><g transform="translate(18.252937804188605 16.588882519022718) rotate(0 51 12.5)"><text x="0" y="18" font-family="Virgil, Segoe UI Emoji" font-size="20px" fill="#000000" text-anchor="start" style="white-space: pre;" direction="ltr">Отношения</text></g></svg>